<?xml version="1.0" encoding="UTF-8" standalone="no"?>
<!-- Created with Inkscape (http://www.inkscape.org/) -->

<svg
   xmlns:dc="http://purl.org/dc/elements/1.1/"
   xmlns:cc="http://creativecommons.org/ns#"
   xmlns:rdf="http://www.w3.org/1999/02/22-rdf-syntax-ns#"
   xmlns:svg="http://www.w3.org/2000/svg"
   xmlns="http://www.w3.org/2000/svg"
   xmlns:sodipodi="http://sodipodi.sourceforge.net/DTD/sodipodi-0.dtd"
   xmlns:inkscape="http://www.inkscape.org/namespaces/inkscape"
   width="210mm"
   height="297mm"
   id="svg2"
   version="1.1"
   inkscape:version="0.48.4 r"
   sodipodi:docname="C:\Users\yosi\AppData\Local\Temp\ink_ext_XXXXXX.svg11303X">
  <sodipodi:namedview
     id="base"
     pagecolor="#ffffff"
     bordercolor="#666666"
     borderopacity="1.0"
     inkscape:pageopacity="0.0"
     inkscape:pageshadow="2"
     inkscape:zoom="1.4"
     inkscape:cx="640.34253"
     inkscape:cy="781.00571"
     inkscape:document-units="px"
     inkscape:current-layer="layer7"
     showgrid="false"
     showguides="true"
     inkscape:guide-bbox="true"
     inkscape:window-width="1920"
     inkscape:window-height="1017"
     inkscape:window-x="-8"
     inkscape:window-y="-8"
     inkscape:window-maximized="1">
    <sodipodi:guide
       id="guide4039"
       position="42.426407,899.03577"
       orientation="1.6876403e-008,1" />
    <sodipodi:guide
       id="guide4041"
       position="-30.304576,399.01026"
       orientation="0,1" />
    <sodipodi:guide
       id="guide4045"
       position="101.01525,908.12714"
       orientation="1,0" />
    <sodipodi:guide
       id="guide4047"
       position="604.07122,906.10683"
       orientation="1,0" />
    <sodipodi:guide
       id="guide4051"
       position="352.54324,900.04592"
       orientation="1,0" />
    <sodipodi:guide
       id="guide4054"
       position="14.142136,647.50778"
       orientation="0,1" />
    <sodipodi:guide
       id="guide4084"
       position="371.78571,665.71429"
       orientation="-0.70710678,0.70710678" />
  </sodipodi:namedview>
  <defs
     id="defs4">
    <inkscape:path-effect
       border_marks="both"
       mark_dir="left"
       offset="0"
       shift="0"
       major_mark_steps="5"
       minor_mark_length="7"
       mark_length="14"
       mark_distance="20"
       unit="px"
       is_visible="true"
       id="path-effect3801"
       effect="ruler" />
    <inkscape:path-effect
       nr_y="5"
       nr_x="5"
       is_visible="true"
       id="path-effect3792"
       effect="construct_grid" />
    <inkscape:path-effect
       bendpath3-nodetypes="cc"
       bendpath4="m -105.26564,271.0193 0,24.1601"
       bendpath3="m -105.26564,295.1794 14.710814,-3.19736"
       bendpath2="m -91.222599,271.0193 0,24.1601"
       bendpath1="m -105.26564,271.0193 14.043041,0"
       xx="true"
       yy="true"
       is_visible="true"
       id="path-effect3790"
       effect="envelope" />
  </defs>
  <metadata
     id="metadata7">
    <rdf:RDF>
      <cc:Work
         rdf:about="">
        <dc:format>image/svg+xml</dc:format>
        <dc:type
           rdf:resource="http://purl.org/dc/dcmitype/StillImage" />
        <dc:title></dc:title>
      </cc:Work>
    </rdf:RDF>
  </metadata>
  <g
     inkscape:label="black"
     id="layer8"
     inkscape:groupmode="layer">
    <rect
       y="56.351772"
       x="46.467018"
       height="597.00012"
       width="627.30475"
       id="rect4251"
       style="fill:#000000;fill-opacity:1;stroke:#000000;stroke-width:58.40000152999999700;stroke-miterlimit:4;stroke-opacity:1;stroke-dasharray:none" />
  </g>
  <g
     style="display:inline"
     inkscape:label="Main"
     id="layer2"
     inkscape:groupmode="layer">
    <rect
       inkscape:export-ydpi="92.41993"
       inkscape:export-xdpi="92.41993"
       inkscape:export-filename="C:\Users\yosi\data\workspace\android\CountDownTimer\store-doc\tool_logo.png"
       ry="53.455563"
       y="174.1732"
       x="121.86204"
       height="458.33191"
       width="460.35223"
       id="rect3262"
       style="fill:#d7d7d7;fill-opacity:1;stroke:#189b00;stroke-width:40.26716995;stroke-miterlimit:4;stroke-opacity:1;stroke-dasharray:none" />
  </g>
  <g
     inkscape:label="button"
     id="layer6"
     inkscape:groupmode="layer">
    <g
       inkscape:export-ydpi="92.41993"
       inkscape:export-xdpi="92.41993"
       inkscape:export-filename="C:\Users\yosi\data\workspace\android\CountDownTimer\store-doc\tool_logo.png"
       transform="matrix(0.70710678,0.70710678,-0.70710678,0.70710678,843.33586,136.88567)"
       id="g4177"
       style="display:inline">
      <rect
         style="fill:#189b00;fill-opacity:1;stroke:#189b00;stroke-width:0.80000001;stroke-miterlimit:4;stroke-opacity:1;stroke-dasharray:none"
         id="rect4157"
         width="49.750019"
         height="64.144699"
         x="-181.06984"
         y="306.36453"
         ry="3.7740922" />
      <rect
         style="fill:#189b00;fill-opacity:1;stroke:#189b00;stroke-width:0.67776245;stroke-miterlimit:4;stroke-opacity:1;stroke-dasharray:none;display:inline"
         id="rect4157-8"
         width="65.024544"
         height="35.225052"
         x="-188.58086"
         y="302.51532"
         ry="2.0725422" />
    </g>
  </g>
  <g
     style="display:inline"
     inkscape:label="clock"
     id="layer3"
     inkscape:groupmode="layer">
    <path
       inkscape:export-ydpi="92.41993"
       inkscape:export-xdpi="92.41993"
       inkscape:export-filename="C:\Users\yosi\data\workspace\android\CountDownTimer\store-doc\tool_logo.png"
       transform="matrix(1.2171402,0,0,1.2171402,-145.3649,-119.98129)"
       d="m 553.56358,434.6539 a 144.95689,144.95689 0 1 1 -289.91378,0 144.95689,144.95689 0 1 1 289.91378,0 z"
       sodipodi:ry="144.95689"
       sodipodi:rx="144.95689"
       sodipodi:cy="434.6539"
       sodipodi:cx="408.60669"
       id="path4043"
       style="fill:#ffffff;fill-opacity:1;stroke:#dd2c00;stroke-width:10.63033772;stroke-miterlimit:4;stroke-opacity:1;stroke-dasharray:none"
       sodipodi:type="arc" />
  </g>
  <g
     inkscape:label="redozone"
     id="layer5"
     inkscape:groupmode="layer">
    <g
       inkscape:export-ydpi="92.41993"
       inkscape:export-xdpi="92.41993"
       inkscape:export-filename="C:\Users\yosi\data\workspace\android\CountDownTimer\store-doc\tool_logo.png"
       transform="matrix(0,-1,1,0,-26.543464,229.52321)"
       id="g4111">
      <path
         sodipodi:type="arc"
         style="fill:#dd2c00;fill-opacity:1;stroke:#dd2c00;stroke-width:11.83100033;stroke-miterlimit:4;stroke-opacity:1;stroke-dasharray:none"
         id="path4091"
         sodipodi:cx="-178.797"
         sodipodi:cy="383.6412"
         sodipodi:rx="133.34013"
         sodipodi:ry="133.34013"
         d="m -45.456863,383.6412 c 0,52.25097 -30.518624,99.68697 -78.069347,121.34551 L -178.797,383.6412 z"
         sodipodi:start="0"
         sodipodi:end="1.1433923" />
      <path
         transform="matrix(0.89334289,0,0,0.90163417,-21.696743,36.056965)"
         sodipodi:type="arc"
         style="fill:#ffffff;fill-opacity:1;stroke:#ffffff;stroke-width:11.83100033;stroke-miterlimit:4;stroke-opacity:1;stroke-dasharray:none"
         id="path4091-0"
         sodipodi:cx="-178.797"
         sodipodi:cy="383.6412"
         sodipodi:rx="133.34013"
         sodipodi:ry="133.34013"
         d="m -45.456863,383.6412 c 0,52.25097 -30.518624,99.68697 -78.069347,121.34551 L -178.797,383.6412 z"
         sodipodi:start="0"
         sodipodi:end="1.1433923" />
    </g>
  </g>
  <g
     style="display:inline"
     inkscape:label="parts"
     id="layer4"
     inkscape:groupmode="layer">
    <g
       inkscape:export-ydpi="92.41993"
       inkscape:export-xdpi="92.41993"
       inkscape:export-filename="C:\Users\yosi\data\workspace\android\CountDownTimer\store-doc\tool_logo.png"
       transform="translate(-4,10)"
       id="g4133">
      <path
         sodipodi:type="arc"
         style="fill:#000000;fill-opacity:1;stroke:#dd2c00;stroke-width:11.83100033;stroke-miterlimit:4;stroke-opacity:1;stroke-dasharray:none"
         id="path4080"
         sodipodi:cx="360.62445"
         sodipodi:cy="412.93561"
         sodipodi:rx="8.0812197"
         sodipodi:ry="8.0812197"
         d="m 368.70567,412.93561 c 0,4.46313 -3.61808,8.08122 -8.08122,8.08122 -4.46313,0 -8.08122,-3.61809 -8.08122,-8.08122 0,-4.46314 3.61809,-8.08122 8.08122,-8.08122 4.46314,0 8.08122,3.61808 8.08122,8.08122 z"
         transform="translate(-7.5,-6.4285714)" />
      <path
         style="fill:#dd2c00;fill-opacity:1;stroke:#dd2c00;stroke-width:1px;stroke-linecap:butt;stroke-linejoin:miter;stroke-opacity:1"
         d="M 344.30738,396.31242 464.64285,293.79075 362.85714,415.93361 z"
         id="path4088"
         inkscape:connector-curvature="0"
         sodipodi:nodetypes="cccc" />
    </g>
    <path
       inkscape:export-filename="C:\Users\yosi\data\workspace\android\CountDownTimer\store-doc\tool_logo.png"
       inkscape:export-ydpi="92.41993"
       inkscape:export-xdpi="92.41993"
       transform="translate(-15.223732,4.4441542)"
       d="m 381.83767,275.0498 a 14.647211,14.647211 0 1 1 -29.29442,0 14.647211,14.647211 0 1 1 29.29442,0 z"
       sodipodi:ry="14.647211"
       sodipodi:rx="14.647211"
       sodipodi:cy="275.0498"
       sodipodi:cx="367.19046"
       id="path4056"
       style="fill:#000000;fill-opacity:1;stroke:#000000;stroke-width:11.83100033;stroke-miterlimit:4;stroke-opacity:1;stroke-dasharray:none;display:inline"
       sodipodi:type="arc" />
  </g>
  <g
     inkscape:label="mask"
     id="layer7"
     inkscape:groupmode="layer">
    <rect
       inkscape:export-ydpi="92.41993"
       inkscape:export-xdpi="92.41993"
       inkscape:export-filename="C:\Users\yosi\data\workspace\android\CountDownTimer\store-doc\icon.png"
       ry="97.445084"
       y="126.16748"
       x="252.65334"
       height="379.58701"
       width="379.58701"
       id="rect4226"
       style="fill:none;stroke:#000000;stroke-width:54.58975601;stroke-miterlimit:4;stroke-opacity:1;stroke-dasharray:none" />
    <rect
       ry="44.505302"
       y="553.28827"
       x="45.39827"
       height="89.010605"
       width="600.14783"
       id="rect4228"
       style="fill:#ffffff;fill-opacity:1;stroke:#ffffff;stroke-width:84.54678345;stroke-miterlimit:4;stroke-opacity:1;stroke-dasharray:none" />
    <rect
       ry="0"
       y="115.116"
       x="-49.322128"
       height="502.70526"
       width="249.15698"
       id="rect4228-5"
       style="fill:#ffffff;fill-opacity:1;stroke:#ffffff;stroke-width:129.46141052;stroke-miterlimit:4;stroke-opacity:1;stroke-dasharray:none" />
    <g
       id="flowRoot3011"
       style="font-size:40px;font-style:normal;font-weight:normal;line-height:125%;letter-spacing:0px;word-spacing:0px;fill:#9ee9a2;fill-opacity:1;stroke:#4c4c4c;stroke-width:0.38101432;stroke-miterlimit:4;stroke-opacity:1;font-family:Sans"
       transform="matrix(5.2603696,1.365486,-0.58130151,4.3995204,1004.1551,-670.35105)">
      <path
         inkscape:connector-curvature="0"
         id="path3788"
         style="font-variant:normal;font-stretch:normal;fill:#9ee9a2;stroke:#4c4c4c;font-family:Buxton Sketch;-inkscape-font-specification:Buxton Sketch"
         d="m -82.2869,279.30791 c 0,0 0.05971,-0.82958 0.05971,-0.82958 0,0 0.243712,-0.6275 0.243712,-0.6275 0,0 0.181464,-2.45986 0.181464,-2.45986 0.0034,-0.0453 0.03457,-0.16745 0.09365,-0.36598 0.05908,-0.19784 0.122159,-0.41183 0.189294,-0.64182 0.06713,-0.22904 0.130001,-0.43773 0.188637,-0.62627 0.05864,-0.18787 0.09003,-0.3091 0.09425,-0.36413 0,0 0.09118,-1.18068 0.09118,-1.18068 0.0034,-0.0434 0.01947,-0.14084 0.04769,-0.29202 0.02839,-0.1508 0.06021,-0.30925 0.09547,-0.47526 0.03517,-0.16555 0.06678,-0.32008 0.09482,-0.46367 0.02796,-0.14325 0.04366,-0.23604 0.04704,-0.27862 0,0 0.136555,-1.70636 0.136555,-1.70636 0,0 0.13518,-1.65643 0.13518,-1.65643 0.0034,-0.0409 7.63e-4,-0.1133 -0.0072,-0.21729 -0.0082,-0.10393 -0.01847,-0.21581 -0.03097,-0.33564 -0.01241,-0.11974 -0.02294,-0.22891 -0.0316,-0.32753 -0.0086,-0.0985 -0.0108,-0.1731 -0.0066,-0.22367 0.0042,-0.0505 -0.01157,-0.12952 -0.04742,-0.23711 -0.03585,-0.10766 -0.07381,-0.22343 -0.113902,-0.34733 -0.04011,-0.12399 -0.07827,-0.23758 -0.11453,-0.34076 -0.03627,-0.10325 -0.05225,-0.18007 -0.04804,-0.23037 0.0034,-0.0402 -0.0028,-0.0999 -0.0187,-0.17925 -0.01578,-0.0793 -0.03143,-0.1611 -0.04678,-0.24544 0,0 -0.07431,-0.31947 -0.07431,-0.31947 0,0 0.04416,-0.52338 0.04416,-0.52338 0,0 0.03153,-0.37161 0.03153,-0.37161 0,0 0.214208,-0.13456 0.214208,-0.13456 0,0 0.608358,-0.19835 0.608358,-0.19835 0,0 0.43112,-0.10151 0.43112,-0.10151 0.04425,0.009 0.114208,0.0135 0.209904,0.0133 0.09568,-2e-4 0.191377,-5.7e-4 0.287067,-9.8e-4 0.09568,-5.2e-4 0.18861,-0.002 0.278772,-0.004 0.09015,-0.002 0.162887,0.002 0.218201,0.0126 0,0 0.414775,0.0755 0.414775,0.0755 0.387127,0.0671 0.645517,0.21845 0.77516,0.45561 0.129626,0.23595 0.228723,0.52873 0.297271,0.87928 -0.0034,0.0366 0.002,0.0997 0.01624,0.18932 0.01412,0.0897 0.02812,0.18167 0.04183,0.27595 0.02307,0.11393 0.05092,0.23765 0.08345,0.3711 -0.0042,0.0461 -0.023,0.13028 -0.0565,0.25286 -0.0335,0.12297 -0.07048,0.25534 -0.11118,0.39717 -0.04071,0.14234 -0.07777,0.27601 -0.111193,0.40091 -0.03342,0.12529 -0.05232,0.21163 -0.05652,0.25882 -0.0076,0.0851 -0.02993,0.21202 -0.06722,0.38125 -0.03721,0.16986 -0.07471,0.34266 -0.112343,0.51846 -0.03763,0.17644 -0.0743,0.34142 -0.10984,0.49484 -0.03554,0.15392 -0.05508,0.25047 -0.05843,0.28932 0,0 -0.04664,0.54141 -0.04664,0.54141 -0.0076,0.0882 -0.0312,0.26465 -0.0703,0.53016 -0.03928,0.26668 -0.08816,0.5817 -0.146485,0.94584 -0.05842,0.36632 -0.121665,0.76013 -0.189762,1.18193 -0.06818,0.42463 -0.131659,0.82881 -0.190467,1.21207 -0.05888,0.38549 -0.108161,0.72319 -0.147914,1.01231 -0.03976,0.29032 -0.06347,0.48345 -0.07106,0.57856 0,0 -0.03035,0.38156 -0.03035,0.38156 0,0 -0.02909,0.36725 -0.02909,0.36725 0.01283,0.11543 0.03211,0.21968 0.05777,0.31269 0.01536,0.0834 0.02821,0.16436 0.03855,0.24295 0.01025,0.0786 0.01373,0.13938 0.01036,0.18226 0,0 0.152461,0.57323 0.152461,0.57323 0,0 -0.04303,0.55032 -0.04303,0.55032 0,0 0.16766,0.37816 0.16766,0.37816 -0.0042,0.0542 0.01137,0.1001 0.04677,0.13765 0.0354,0.0375 0.07947,0.0683 0.132312,0.0921 0.05199,0.0346 0.121008,0.0611 0.207067,0.0792 0,0 0.581352,-0.098 0.581352,-0.098 0,0 0.614598,-0.11162 0.614598,-0.11162 0.04429,-0.008 0.114979,-0.0399 0.212068,-0.0947 0.09708,-0.0548 0.194578,-0.11481 0.292506,-0.18002 0.09792,-0.0652 0.192649,-0.12469 0.284201,-0.17847 0.09154,-0.0538 0.164996,-0.0863 0.220377,-0.0975 0.09966,-0.0203 0.23785,-0.0788 0.414572,-0.17585 0.176701,-0.0971 0.314896,-0.15636 0.414581,-0.17779 0.04429,-0.01 0.133733,-0.039 0.268331,-0.0883 0.134574,-0.0496 0.277678,-0.10379 0.429313,-0.16274 0.15161,-0.0592 0.294716,-0.11433 0.429321,-0.16537 0.134579,-0.0512 0.22957,-0.0837 0.28496,-0.0971 0,0 1.362419,-0.35019 1.362419,-0.35019 0,0 1.229612,-0.3506 1.229612,-0.3506 0.0443,-0.0132 0.09802,-0.0115 0.161143,0.005 0.0631,0.0165 0.12261,0.0429 0.178524,0.0791 0.05589,0.036 0.103271,0.0768 0.142149,0.12231 0.03886,0.0454 0.05661,0.0864 0.05327,0.12311 0.02736,0.0534 0.05514,0.10226 0.08336,0.1464 0.01796,0.0386 0.0355,0.0817 0.05264,0.12945 0.01712,0.0477 0.02358,0.0945 0.0194,0.1405 0,0 -0.03145,0.3459 -0.03145,0.3459 0,0 -0.01258,0.13888 -0.01258,0.13888 -0.0502,0.0804 -0.09956,0.15172 -0.148059,0.21379 -0.04853,0.0622 -0.09641,0.1174 -0.143657,0.16566 -0.04727,0.0483 -0.0986,0.0822 -0.153987,0.10148 -0.196764,0.15964 -0.431244,0.32084 -0.703439,0.48303 -0.272221,0.16163 -0.513574,0.27701 -0.724065,0.346 0,0 -0.796188,0.42623 -0.796188,0.42623 -0.05541,0.0173 -0.170432,0.0699 -0.345082,0.15773 -0.17467,0.0874 -0.363596,0.18372 -0.566776,0.28871 -0.2032,0.10457 -0.39489,0.20035 -0.575071,0.28737 -0.1802,0.0867 -0.29245,0.13607 -0.336751,0.14852 -0.0554,0.0155 -0.129081,0.0563 -0.221061,0.12258 -0.092,0.0662 -0.189735,0.1366 -0.293214,0.2111 -0.103496,0.0745 -0.201023,0.14225 -0.292582,0.20319 -0.09158,0.0609 -0.165054,0.0988 -0.22043,0.11363 0,0 -0.99673,0.46237 -0.99673,0.46237 -0.08007,0.0519 -0.159716,0.0983 -0.238928,0.1392 -0.148217,0.0899 -0.277706,0.14831 -0.388459,0.17496 0,0 -0.380707,0.28566 -0.380707,0.28566 0,0 -1.06172,0.65621 -1.06172,0.65621 0,0 -0.39339,0.45767 -0.39339,0.45767 0,0 -0.431827,0.31544 -0.431827,0.31544 -0.05537,0.0119 -0.136518,0.0406 -0.24342,0.0861 -0.106903,0.0453 -0.224887,0.0929 -0.353928,0.14246 -0.129058,0.0493 -0.249804,0.0968 -0.362242,0.14239 -0.112437,0.0454 -0.196341,0.0735 -0.251717,0.0842 0,0 -0.383412,-0.13996 -0.383412,-0.13996 0,0 -0.182794,-0.19786 -0.182794,-0.19786 0,0 -0.187962,-0.35868 -0.187962,-0.35868 0,0 -0.521549,-0.75886 -0.521549,-0.75886 -0.02477,-0.11547 -0.04946,-0.23099 -0.07422,-0.34653 -0.01533,-0.093 -0.03074,-0.18599 -0.04607,-0.27899 -0.01533,-0.093 -0.02096,-0.16935 -0.01672,-0.22903 0,0 0.07621,-1.06849 0.07621,-1.06849" />
    </g>
    <rect
       style="fill:none;stroke:#4c4c4c;stroke-width:2.17711973;stroke-miterlimit:4;stroke-opacity:1;stroke-dasharray:none"
       id="rect4355"
       width="322.896"
       height="327.64606"
       x="278.552"
       y="151.16414"
       ry="0" />
  </g>
</svg>
